<?xml version="1.0" standalone="no"?>
<!DOCTYPE svg PUBLIC "-//W3C//DTD SVG 20010904//EN"
 "http://www.w3.org/TR/2001/REC-SVG-20010904/DTD/svg10.dtd">
<svg version="1.0" xmlns="http://www.w3.org/2000/svg"
 width="512.000000pt" height="512.000000pt" viewBox="0 0 512.000000 512.000000"
 preserveAspectRatio="xMidYMid meet">
<metadata>
Created by potrace 1.14, written by Peter Selinger 2001-2017
</metadata>
<g transform="translate(0.000000,512.000000) scale(0.100000,-0.100000)"
fill="#000000" stroke="none">
<path d="M3033 5100 c-62 -37 -66 -59 -68 -322 -1 -172 -5 -240 -14 -251 -6
-9 -35 -18 -64 -22 -29 -4 -95 -16 -147 -26 -52 -11 -106 -22 -120 -25 -91
-18 -441 -126 -465 -143 -5 -4 -32 -16 -60 -26 -223 -80 -696 -345 -890 -498
-5 -4 -53 -40 -105 -79 -52 -40 -101 -78 -108 -85 -8 -7 -30 -26 -50 -41 -21
-15 -39 -30 -42 -33 -3 -3 -27 -25 -55 -49 -165 -141 -417 -405 -524 -550 -22
-30 -44 -60 -48 -65 -97 -122 -113 -181 -61 -225 43 -36 80 -26 200 56 61 42
120 80 132 85 12 5 44 23 71 41 28 17 88 51 134 75 46 25 91 49 100 54 26 15
232 109 239 109 4 1 25 9 47 20 22 11 47 19 56 20 8 0 19 4 25 9 12 12 254 93
374 125 100 27 304 70 380 80 25 3 55 8 68 10 21 5 86 12 192 22 106 9 429 4
525 -10 22 -3 56 -7 75 -10 78 -10 106 -18 119 -31 12 -12 15 -59 16 -252 1
-248 6 -276 49 -312 26 -22 99 -39 124 -30 23 9 312 178 322 189 3 3 25 16 50
30 25 13 59 33 76 45 17 11 53 33 80 49 27 17 101 61 164 99 63 38 129 77 145
87 17 10 142 86 279 169 137 83 251 151 253 151 2 0 9 5 16 10 7 6 71 46 142
89 200 119 213 128 242 172 45 68 38 183 -15 242 -14 17 -128 97 -136 97 -2 0
-189 113 -417 251 -228 138 -434 262 -459 276 -25 14 -52 31 -60 37 -8 7 -75
48 -148 92 -73 43 -165 98 -203 122 -39 23 -74 42 -79 42 -5 0 -10 4 -12 8 -1
4 -55 38 -118 75 -127 74 -169 83 -227 47z"/>
<path d="M4770 2444 c-92 -61 -243 -156 -285 -179 -154 -85 -248 -134 -325
-169 -30 -13 -77 -34 -104 -46 -89 -40 -269 -107 -361 -135 -49 -15 -108 -33
-130 -40 -37 -12 -234 -58 -298 -69 -15 -3 -53 -10 -85 -15 -31 -6 -73 -13
-92 -15 -19 -2 -60 -7 -90 -11 -157 -20 -489 -20 -640 0 -25 3 -64 8 -86 11
-125 15 -118 -2 -119 282 -1 269 -6 290 -77 325 -71 35 -79 32 -381 -150 -155
-94 -300 -181 -322 -193 -22 -12 -42 -26 -45 -31 -3 -4 -14 -12 -25 -16 -18
-7 -126 -72 -193 -115 -15 -10 -34 -21 -42 -25 -8 -4 -50 -29 -94 -56 -43 -27
-92 -57 -110 -67 -17 -9 -98 -59 -180 -109 -81 -50 -150 -91 -151 -91 -5 0
-210 -126 -259 -159 -111 -74 -127 -235 -32 -319 28 -24 361 -232 459 -285 17
-10 44 -25 59 -35 32 -20 505 -308 557 -338 20 -12 175 -105 344 -208 280
-169 313 -186 354 -186 53 0 95 26 120 73 14 27 17 69 18 275 1 133 5 245 8
249 4 4 65 17 135 29 165 28 160 28 277 58 166 45 369 113 485 163 103 45 134
60 230 107 58 28 107 54 108 59 2 4 8 7 13 7 8 0 55 26 191 105 9 6 48 29 85
53 37 23 77 48 88 55 11 6 22 14 25 17 3 3 37 28 75 55 89 62 280 211 365 284
116 99 355 335 431 426 19 22 36 42 39 45 41 40 196 251 216 292 20 42 14 78
-18 108 -33 30 -76 25 -138 -16z"/>
</g>
</svg>
